<?xml version="1.0" encoding="UTF-8"?> <svg xmlns="http://www.w3.org/2000/svg" width="83" height="87" viewBox="0 0 83 87" fill="none"> <path fill-rule="evenodd" clip-rule="evenodd" d="M73.4958 15.8212C74.9088 17.1703 75.6229 19.126 75.6229 21.533V24.2625C76.0854 24.6337 76.6685 25.0965 76.6024 25.0467C79.104 27.0883 80.5078 28.9965 80.5078 31.8964V46.8105V49.5365C81.5626 50.8578 82.1364 52.2625 82.1364 54.2252C82.1364 56.6879 81.4061 58.1066 79.796 60.0844C79.541 60.3976 79.41 60.56 79.3347 60.6737C79.2918 61.1087 79.2848 61.4253 79.2848 62.2002C79.2848 64.7116 79.1944 65.7173 78.449 67.1731C78.1499 67.7612 77.3849 69.0581 77.3292 69.166C77.2481 69.3261 77.2516 69.3133 77.2516 69.3713C77.2516 72.9244 73.6951 76.8985 68.6491 79.6211C68.5773 79.8264 68.4776 80.1025 68.4555 80.1697C68.3153 80.5653 68.1843 80.8924 68.0463 81.23C66.5521 84.7343 63.8037 86.9116 59.372 86.9116C58.9849 86.9116 58.6545 86.9244 57.85 86.9511C57.2785 86.9789 57.0073 86.9847 56.6653 86.994C47.1077 87.2109 42.5914 81.5675 42.5914 65.3809V59.2318C43.4597 59.1645 44.3059 59.0508 45.1289 58.8919V65.3867C45.1289 80.2915 48.6413 84.6821 56.6085 84.5046C56.9296 84.4988 57.195 84.4896 57.7503 84.4641C58.5861 84.4304 58.9385 84.4211 59.3732 84.4211C62.685 84.4211 64.5826 82.9131 65.7117 80.2695C65.8334 79.9807 65.9401 79.6965 66.0676 79.3403C66.0954 79.2638 66.2925 78.7082 66.3423 78.5643C66.4698 78.2151 66.5672 78.0029 66.5602 77.8869C71.3396 75.5414 74.7199 71.9628 74.7199 69.369C74.7199 68.8934 74.8196 68.5315 75.0665 68.0501C75.1696 67.8506 75.9335 66.556 76.1828 66.0537C76.6789 65.0944 76.7566 64.2569 76.7566 62.1967C76.7566 60.6725 76.8099 60.0415 77 59.6726C77.1623 59.3571 77.3431 59.1053 77.8207 58.523C79.1028 56.9535 79.6024 55.9722 79.6024 54.2241C79.6024 52.8356 79.2187 51.9331 78.4548 50.9923C78.405 50.9308 78.2485 50.7383 78.2149 50.7012C78.0027 50.4436 77.9807 50.3856 77.9807 50.2325V31.8999C77.9807 29.9558 76.9548 28.5638 74.99 26.9607C74.8462 26.8447 74.699 26.7275 74.5158 26.5779C74.5158 26.5813 74.1704 26.3087 74.0765 26.2322C73.7589 25.9805 73.5491 25.8088 73.381 25.6522C73.2465 25.5269 73.1561 25.4283 73.0912 25.3575V21.5307C73.0912 19.7582 72.6171 18.4498 71.7338 17.6122C71.2817 17.1772 70.8076 16.9325 70.3647 16.8118C70.0784 16.5787 69.8408 16.1889 69.8408 15.9534V14.3584C69.8408 12.4885 68.8891 10.8112 67.3636 9.3113C66.5 8.46566 65.6422 7.84622 65.037 7.49358C64.9652 7.45066 64.8377 7.3741 64.6499 7.27318C64.3566 7.10498 64.0135 6.91474 63.6356 6.71175C62.5598 6.13871 61.4018 5.56219 60.2136 5.02511C58.9188 4.43699 57.6529 3.92427 56.445 3.52639C54.4767 2.86055 52.7333 2.49631 51.2414 2.49631C48.4871 2.49631 46.6312 3.75607 45.7213 5.77679C45.4465 6.39275 45.275 7.03422 45.1915 7.68034C45.1359 8.10954 45.1162 8.48654 45.1324 8.80554V28.4304C44.3024 28.232 43.4562 28.087 42.5949 28.0012V8.84614C42.5543 7.63742 42.7479 6.23383 43.4029 4.76759C44.707 1.86992 47.4543 0 51.2414 0C53.0602 0 55.0563 0.419919 57.2681 1.16232C58.5629 1.60428 59.9006 2.13672 61.2731 2.75963C62.5146 3.31759 63.7214 3.92195 64.8446 4.52283C65.5251 4.88707 66.0386 5.17243 66.3354 5.34991C67.1062 5.80695 68.1194 6.5331 69.1487 7.54462C71.1101 9.46442 72.3771 11.6963 72.3771 14.355V14.9686C72.7573 15.189 73.1352 15.4709 73.5004 15.8177L73.4958 15.8212ZM8.64069 15.8212C7.22763 17.1703 6.51356 19.126 6.51356 21.533V24.2625C6.05104 24.6337 5.46796 25.0965 5.53403 25.0467C3.03247 27.0883 1.62868 28.9965 1.62868 31.8964V46.8105V49.5365C0.573805 50.8578 0 52.2625 0 54.2252C0 56.6879 0.730298 58.1066 2.34043 60.0844C2.59545 60.3976 2.72644 60.56 2.80179 60.6737C2.84468 61.1087 2.85164 61.4253 2.85164 62.2002C2.85164 64.7116 2.94206 65.7173 3.68742 67.1731C3.9865 67.7612 4.75157 69.0581 4.80721 69.166C4.88836 69.3261 4.88488 69.3133 4.88488 69.3713C4.88488 72.9244 8.44131 76.8985 13.4873 79.6211C13.5592 79.8264 13.6589 80.1025 13.6809 80.1697C13.8212 80.5653 13.9522 80.8924 14.0901 81.23C15.5843 84.7343 18.3328 86.9116 22.7644 86.9116C23.1516 86.9116 23.482 86.9244 24.2864 86.9511C24.8579 86.9789 25.1292 86.9847 25.4712 86.994C35.0288 87.2109 39.545 81.5675 39.545 65.3809V59.2318C38.6768 59.1645 37.8306 59.0508 37.0075 58.8919V65.3867C37.0075 80.2915 33.4952 84.6821 25.528 84.5046C25.2069 84.4988 24.9414 84.4896 24.3861 84.4641C23.5504 84.4304 23.198 84.4211 22.7633 84.4211C19.4514 84.4211 17.5538 82.9131 16.4247 80.2695C16.303 79.9807 16.1964 79.6965 16.0689 79.3403C16.041 79.2638 15.844 78.7082 15.7941 78.5643C15.6666 78.2151 15.5692 78.0029 15.5762 77.8869C10.7968 75.5414 7.41658 71.9628 7.41658 69.369C7.41658 68.8934 7.31689 68.5315 7.06998 68.0501C6.96681 67.8506 6.20289 66.556 5.95366 66.0537C5.45752 65.0944 5.37986 64.2569 5.37986 62.1967C5.37986 60.6725 5.32653 60.0415 5.13643 59.6726C4.97414 59.3571 4.7933 59.1053 4.31571 58.523C3.03363 56.9535 2.53402 55.9722 2.53402 54.2241C2.53402 52.8356 2.91771 51.9331 3.68163 50.9923C3.73147 50.9308 3.88796 50.7383 3.92158 50.7012C4.13372 50.4436 4.15574 50.3856 4.15574 50.2325V31.8999C4.15574 29.9558 5.18163 28.5638 7.14648 26.9607C7.29022 26.8447 7.43744 26.7275 7.6206 26.5779C7.6206 26.5813 7.96604 26.3087 8.05993 26.2322C8.37756 25.9805 8.58737 25.8088 8.75546 25.6522C8.88992 25.5269 8.98034 25.4283 9.04526 25.3575V21.5307C9.04526 19.7582 9.51937 18.4498 10.4027 17.6122C10.8548 17.1772 11.3289 16.9325 11.7717 16.8118C12.058 16.5787 12.2957 16.1889 12.2957 15.9534V14.3584C12.2957 12.4885 13.2474 10.8112 14.7729 9.3113C15.6365 8.46566 16.4943 7.84622 17.0994 7.49358C17.1713 7.45066 17.2988 7.3741 17.4866 7.27318C17.7798 7.10498 18.123 6.91474 18.5009 6.71175C19.5766 6.13871 20.7347 5.56219 21.9228 5.02511C23.2177 4.43699 24.4835 3.92427 25.6914 3.52639C27.6597 2.86055 29.4032 2.49631 30.8951 2.49631C33.6493 2.49631 35.5052 3.75607 36.4152 5.77679C36.6899 6.39275 36.8615 7.03422 36.9449 7.68034C37.0006 8.10954 37.0203 8.48654 37.0041 8.80554V28.4304C37.834 28.232 38.6803 28.087 39.5415 28.0012V8.84614C39.5821 7.63742 39.3885 6.23383 38.7336 4.76759C37.4295 1.86992 34.6822 0 30.8951 0C29.0763 0 27.0801 0.419919 24.8684 1.16232C23.5735 1.60428 22.2358 2.13672 20.8633 2.75963C19.6218 3.31759 18.4151 3.92195 17.2918 4.52283C16.6114 4.88707 16.0978 5.17243 15.8011 5.34991C15.0302 5.80695 14.0171 6.5331 12.9877 7.54462C11.0263 9.46442 9.75933 11.6963 9.75933 14.355V14.9686C9.37911 15.189 9.00121 15.4709 8.63606 15.8177L8.64069 15.8212ZM15.3397 14.3596C15.3397 13.4362 15.9135 12.4213 16.9278 11.4318C17.315 11.0548 17.7323 10.7045 18.1508 10.4052C18.3942 10.2335 18.5809 10.1071 18.669 10.0583C18.7246 10.0247 18.8382 9.96322 19.0028 9.86462C19.2833 9.70802 19.6044 9.53402 19.9603 9.34378C20.9827 8.7951 22.0782 8.25222 23.2014 7.74066C24.4116 7.19546 25.5848 6.72219 26.679 6.35795C28.3599 5.79419 29.8008 5.49027 30.8997 5.49027C32.4159 5.49027 33.2019 6.02039 33.6354 6.99014C33.9032 7.57826 33.9913 8.22902 33.9727 8.69186V29.4303C33.1184 29.7876 32.2815 30.204 31.4642 30.6738L23.4263 22.7974V17.8767L29.4588 11.9689H29.9399V14.029L25.3019 18.5762C25.1466 18.7293 25.062 18.9312 25.062 19.14V21.5319C25.062 21.7465 25.1466 21.9518 25.3019 22.0991L29.3116 26.0315C29.3267 26.0489 29.3429 26.0663 29.3603 26.0837C29.3777 26.1011 29.3962 26.1173 29.4148 26.1324L30.9924 27.6799C31.3101 27.9919 31.8259 27.9919 32.14 27.6799C32.4588 27.3667 32.4588 26.8609 32.14 26.5512L31.0886 25.5199L32.14 24.4922C32.4391 24.1917 32.4577 23.7161 32.1737 23.4006L29.4704 20.3638L32.0925 18.1516C32.4356 17.8663 32.4727 17.364 32.1795 17.0264C31.8931 16.6958 31.3784 16.6587 31.0376 16.9441L28.2022 19.3383C28.0214 19.4856 27.9182 19.7072 27.9182 19.9392V20.7396C27.9182 20.9333 27.9866 21.1166 28.1153 21.2604L30.4546 23.8878L29.9387 24.3936L26.6837 21.2013V19.4752L31.3251 14.9257C31.4747 14.7749 31.5593 14.573 31.5593 14.3619V11.9712H32.0543C32.5006 11.9712 32.8622 11.6116 32.8622 11.1708V8.77886C32.8622 8.34038 32.5006 7.98194 32.0543 7.98194C31.6022 7.98194 31.2405 8.34038 31.2405 8.77886V10.3739H30.8244C30.8 10.3715 30.7757 10.3704 30.7513 10.3704C30.727 10.3704 30.7026 10.3715 30.6794 10.3739H29.1238C28.9151 10.3739 28.7053 10.4562 28.5523 10.607L22.0457 16.9882C21.8927 17.1355 21.8092 17.3373 21.8092 17.5519V23.135C21.8092 23.3438 21.8927 23.5456 22.0457 23.6987L30.0581 31.5519C29.4229 31.9776 28.7981 32.4358 28.186 32.9254L19.7598 24.4133V16.69L26.4449 10.1442C26.7637 9.83098 26.7637 9.32522 26.4484 9.01318C26.1296 8.70346 25.6184 8.70346 25.2996 9.01318L18.378 15.798C18.2192 15.9488 18.138 16.1506 18.138 16.3652V20.7408H16.9232V19.1434C16.9232 18.7073 16.5615 18.3488 16.1152 18.3488C15.6631 18.3488 15.3015 18.7073 15.3015 19.1434V21.5377C15.3015 21.9785 15.6631 22.3311 16.1152 22.3311H18.138V24.7323C18.138 24.9434 18.2192 25.1429 18.3687 25.2903L26.9526 33.9659C26.635 34.2489 26.3197 34.5412 26.0079 34.8405L18.7455 27.5766C18.4302 27.2611 17.9189 27.2611 17.6002 27.5708C17.2791 27.8771 17.2733 28.3805 17.5851 28.6925L24.8776 35.9808C23.8077 37.1106 22.8432 38.2811 21.9854 39.4515C21.305 40.3749 20.8216 41.1196 20.5445 41.5998V39.0478L22.3784 37.2475C22.696 36.9343 22.696 36.4286 22.3784 36.1165L14.0055 27.9142L14.2431 27.681C14.3961 27.5302 14.4831 27.3284 14.4831 27.1173V23.1315C14.4831 22.6907 14.1214 22.3323 13.6693 22.3323C13.223 22.3323 12.8613 22.6907 12.8613 23.1315V26.7832L9.84511 29.7423C9.69209 29.8931 9.60863 30.095 9.60863 30.3061V34.2953C9.60863 34.7338 9.9703 35.0922 10.4166 35.0922C10.8687 35.0922 11.2269 34.7326 11.2269 34.2953V30.6402L12.859 29.0394L14.1504 30.3049L12.2875 32.1319C11.978 32.4324 11.963 32.9172 12.2562 33.2328L15.7315 36.9946V42.2657H9.60515C9.15886 42.2657 8.79371 42.6206 8.79371 43.0661V49.4437C8.79371 49.8857 9.15886 50.2406 9.60515 50.2406C10.0538 50.2406 10.4154 49.8845 10.4154 49.4437V43.8607H16.5418C16.9881 43.8607 17.3498 43.5057 17.3498 43.0661V36.6826C17.3498 36.4889 17.2779 36.2963 17.1411 36.149L13.9788 32.7247L15.298 31.4301L20.657 36.6826L19.1593 38.1546C19.004 38.302 18.9217 38.5108 18.9217 38.7184V44.6761C18.9217 45.1204 19.2833 45.4696 19.7296 45.4696C19.9661 45.4696 20.1794 45.3721 20.3278 45.2155C20.5515 45.7445 20.9294 46.5113 21.4765 47.4358C21.7235 47.8568 21.9854 48.2768 22.2636 48.6955V48.7141L20.6512 50.2928L18.6307 48.3127V46.2549C18.6307 45.8106 18.269 45.458 17.8169 45.458H12.8579C12.4116 45.458 12.0464 45.8106 12.0464 46.2549V51.7394H7.97995C7.53134 51.7394 7.16619 52.092 7.16619 52.5328C7.16619 52.9713 7.53134 53.3297 7.97995 53.3297H17.3034L20.4228 56.384C20.7381 56.6937 21.247 56.6937 21.5646 56.384L25.062 52.9597V59.0102H23.4344C23.2188 59.0102 23.0136 59.0926 22.8606 59.2434L21.8058 60.2781L16.6856 55.2565C16.5325 55.1092 16.3274 55.0268 16.1152 55.0268H9.60515C9.15886 55.0268 8.79487 55.3829 8.79487 55.8214C8.79487 56.2657 9.16002 56.6218 9.60515 56.6218H15.7756L20.6605 61.4033L18.1508 63.8648H17.7393V60.6076C17.7393 60.3964 17.6558 60.1911 17.4993 60.0438L15.4243 58.008C15.2783 57.8607 15.0685 57.7748 14.8505 57.7748H10.4212C9.97494 57.7748 9.61095 58.1333 9.61095 58.5717C9.61095 59.016 9.9761 59.3721 10.4212 59.3721H14.5167L16.1175 60.9323V63.8648H15.298V62.9995C15.298 62.7849 15.2111 62.5819 15.0604 62.4345L13.4317 60.8372C13.2856 60.6899 13.0793 60.6076 12.8579 60.6076H12.0464C11.5967 60.6076 11.2385 60.9625 11.2385 61.401C11.2385 61.8453 11.5967 62.2014 12.0464 62.2014H12.524L13.6786 63.3266V63.8637H12.3548L11.0136 62.4508C10.7076 62.1318 10.1929 62.1132 9.86597 62.4171C9.5356 62.7153 9.52285 63.2233 9.82888 63.5423L11.4135 65.2035C11.563 65.3659 11.7787 65.4517 12.0024 65.4517H18.4904C18.6991 65.4517 18.9054 65.3693 19.0608 65.222L22.3633 61.9821L22.3784 61.9682L22.3935 61.9531L23.7683 60.6041H25.8769C26.3232 60.6041 26.6848 60.2456 26.6848 59.8072V53.7705C26.9538 54.0072 27.2273 54.238 27.5056 54.4619V64.2627L22.0469 69.6068C21.7292 69.92 21.7292 70.4223 22.0469 70.7355C22.3622 71.0487 22.8769 71.0487 23.1945 70.7355L28.8838 65.1559C29.0403 65.0086 29.1238 64.8091 29.1238 64.591V55.652C29.6536 56.0058 30.1984 56.3376 30.7571 56.6438V65.8542L21.764 74.6424L19.7864 72.7075L19.7018 72.6367L16.9255 70.5696V69.3736H19.4363C19.6485 69.3736 19.8537 69.2913 20.0067 69.1405L25.2718 63.9773C25.5871 63.6711 25.5871 63.1642 25.2752 62.8521C24.9599 62.5366 24.4429 62.5366 24.1276 62.8521L19.0967 67.7821H16.1152C15.6655 67.7821 15.298 68.1348 15.298 68.579V70.9675C15.298 71.2192 15.4197 71.4547 15.626 71.6055L18.6829 73.871L21.1937 76.3336C21.5055 76.6434 22.0202 76.6433 22.3344 76.3394L32.1389 66.7486C32.2919 66.6013 32.3788 66.3959 32.3788 66.1871V57.4454C32.8993 57.6762 33.4314 57.8874 33.9751 58.0764V65.3891C33.9751 72.8768 32.977 77.3718 31.1988 79.5944C29.9607 81.143 28.4573 81.578 25.6033 81.513C25.3042 81.5072 25.055 81.5003 24.5148 81.4794C23.6385 81.4457 23.2582 81.433 22.7679 81.433C20.8123 81.433 19.9302 80.7312 19.237 79.1095C19.1465 78.8914 19.0561 78.6559 18.9472 78.352C18.9251 78.2847 18.7258 77.714 18.6632 77.5516C18.2076 76.3 17.8146 75.6376 16.9441 75.2084C14.8482 74.1818 13.1164 72.9302 11.9062 71.6542C10.9649 70.652 10.4688 69.7437 10.4688 69.3702C10.4688 68.3923 10.2439 67.5861 9.79178 66.7091C9.63877 66.4052 8.87717 65.1083 8.67431 64.7163C8.49 64.3451 8.43436 63.7163 8.43436 62.1956C8.43436 60.1319 8.35321 59.2979 7.86055 58.3351C7.57655 57.7713 7.30529 57.4001 6.69671 56.6519C5.8076 55.5662 5.58388 55.1254 5.58388 54.2241C5.58388 53.5826 5.69632 53.3135 6.06147 52.868C6.09856 52.8193 6.26085 52.6314 6.3049 52.5711C6.91001 51.8345 7.21256 51.1884 7.21256 50.2348V31.8999C7.21256 31.1146 7.77709 30.3421 9.10669 29.2621C9.22841 29.1554 9.3652 29.044 9.54371 28.9095C9.53444 28.9153 9.88684 28.6357 9.98305 28.5591C10.3575 28.261 10.6137 28.0476 10.8536 27.8295C11.6488 27.0906 12.0916 26.4131 12.0916 25.5141V21.5284C12.0916 20.5169 12.2887 19.9833 12.5287 19.7501C12.7002 19.6979 12.9182 19.633 13.1187 19.5239C14.2698 18.8824 15.1647 17.6343 15.3235 16.3467L15.3455 14.3561L15.3397 14.3596ZM12.8532 39.0734C12.8532 38.1941 12.1334 37.4818 11.228 37.4818C10.3297 37.4818 9.60283 38.1906 9.60283 39.0734C9.60283 39.9561 10.3262 40.6672 11.228 40.6672C12.1264 40.6672 12.8532 39.9619 12.8532 39.0734ZM20.7474 11.7311L18.3084 14.123C17.9908 14.4362 17.4761 14.4362 17.1608 14.123C16.8432 13.8132 16.8432 13.3075 17.1678 12.9943L19.6044 10.6024C19.9197 10.2892 20.4367 10.2927 20.752 10.6082C21.0673 10.9179 21.0673 11.4237 20.7486 11.7311H20.7474ZM11.4691 67.5443C11.1515 67.2346 11.1515 66.7289 11.4691 66.4157C11.7879 66.1059 12.2991 66.1036 12.6144 66.4157L14.242 68.0107C14.3915 68.1615 14.4819 68.3633 14.4819 68.5744V70.1659C14.4819 70.6102 14.1168 70.9663 13.6682 70.9663C13.2219 70.9663 12.8567 70.6114 12.8567 70.1659V68.9027L11.468 67.5443H11.4691ZM23.2107 50.0295L21.2157 51.9795C20.9039 52.2927 20.3927 52.2927 20.0739 51.9795L17.2385 49.2071C17.0924 49.0598 17.0043 48.8545 17.0043 48.6433V47.046H13.6705V51.7359H17.6373C17.8494 51.7359 18.0546 51.8124 18.2076 51.9656L20.9862 54.6916L24.3375 51.4122C23.9398 50.9575 23.5643 50.4958 23.2107 50.0295ZM32.1366 70.7332C32.4553 70.4269 32.4553 69.92 32.1366 69.6103C31.8189 69.2971 31.3066 69.2913 30.989 69.6045L22.8548 77.5795C22.7053 77.7291 22.6172 77.9321 22.6172 78.1432V78.9425C22.6172 79.3786 22.9823 79.7371 23.4275 79.7371H26.6814C26.8935 79.7371 27.0998 79.6547 27.2586 79.5074L29.4611 77.3463H29.9352C30.385 77.3463 30.7502 76.9902 30.7502 76.5517C30.7502 76.1074 30.385 75.7513 29.9352 75.7513H29.1215C28.9093 75.7513 28.7007 75.8337 28.5535 75.988L26.3487 78.1444H24.5797L32.1377 70.7332H32.1366ZM40.5628 35.8845C45.0385 35.8845 48.6726 39.4562 48.6726 43.8595C48.6726 48.2594 45.0385 51.831 40.5628 51.831C36.0837 51.831 32.4496 48.2594 32.4496 43.8595C32.4496 39.4562 36.0837 35.8845 40.5628 35.8845ZM35.4901 43.8607C35.4901 46.6075 37.761 48.8405 40.5628 48.8405C43.36 48.8405 45.632 46.6087 45.632 43.8607C45.632 41.1068 43.3611 38.875 40.5628 38.875C40.1687 38.875 39.785 38.9191 39.4175 39.0026C40.6671 39.3738 41.5736 40.5164 41.5736 41.8643C41.5736 43.5173 40.2174 44.8571 38.5354 44.8571C37.1559 44.8571 35.9967 43.9593 35.6223 42.7262C35.5365 43.0904 35.4901 43.4697 35.4901 43.8607ZM40.7077 56.8155C34.7343 56.8155 29.9063 54.4306 26.1725 50.4877C24.8776 49.1166 23.8112 47.6515 22.9499 46.1888C22.4259 45.2991 22.0863 44.5973 21.9112 44.1681C21.7397 43.7412 21.7745 43.2633 22.0086 42.8712C22.2428 42.4571 22.6856 41.7738 23.322 40.9085C24.3734 39.4701 25.5987 38.0352 26.9874 36.6896C31.0307 32.7804 35.6281 30.4035 40.7089 30.4035C45.7966 30.4035 50.394 32.7804 54.4338 36.6896C55.8225 38.0352 57.0478 39.4701 58.0992 40.9085C58.7356 41.7738 59.1784 42.4571 59.4126 42.8712C59.6433 43.2633 59.6815 43.7412 59.51 44.1681C59.3349 44.5973 58.9953 45.2991 58.4736 46.1888C57.61 47.6515 56.5459 49.1166 55.2511 50.4877C51.5115 54.4306 46.6892 56.8155 40.7089 56.8155H40.7077ZM25.5836 44.6924C26.3359 45.9742 27.2714 47.2525 28.397 48.445C31.5906 51.8206 35.6455 53.8227 40.7089 53.8227C45.7711 53.8227 49.8237 51.8206 53.0173 48.445C54.1429 47.2525 55.0818 45.9742 55.8341 44.6924C56.037 44.3421 56.2202 44.0115 56.3674 43.7133C56.1552 43.3851 55.906 43.0324 55.6243 42.6531C54.6691 41.3411 53.5528 40.035 52.2963 38.8205C48.7746 35.4078 44.8727 33.394 40.7089 33.394C36.5508 33.394 32.642 35.4078 29.1168 38.8205C27.8626 40.035 26.7463 41.3411 25.7888 42.6531C25.5082 43.0336 25.2613 43.3851 25.0492 43.7133C25.1987 44.0115 25.3761 44.3421 25.5824 44.6924H25.5836ZM66.7956 14.3596C66.7956 13.4362 66.2218 12.4213 65.2075 11.4318C64.8203 11.0548 64.403 10.7045 63.9845 10.4052C63.7411 10.2335 63.5544 10.1071 63.4663 10.0583C63.4107 10.0247 63.2971 9.96322 63.1325 9.86462C62.852 9.70802 62.5308 9.53402 62.175 9.34378C61.1526 8.7951 60.0571 8.25222 58.9338 7.74066C57.7236 7.19546 56.5505 6.72219 55.4562 6.35795C53.7754 5.79419 52.3345 5.49027 51.2356 5.49027C49.7193 5.49027 48.9334 6.02039 48.4999 6.99014C48.2321 7.57826 48.144 8.22902 48.1625 8.69186V29.4303C49.0169 29.7876 49.8538 30.204 50.6711 30.6738L58.709 22.7974V17.8767L52.6765 11.9689H52.1954V14.029L56.8334 18.5762C56.9887 18.7293 57.0733 18.9312 57.0733 19.14V21.5319C57.0733 21.7465 56.9887 21.9518 56.8334 22.0991L52.8237 26.0315C52.8086 26.0489 52.7924 26.0663 52.775 26.0837C52.7576 26.1011 52.7391 26.1173 52.7205 26.1324L51.1428 27.6799C50.8252 27.9919 50.3094 27.9919 49.9952 27.6799C49.6765 27.3667 49.6765 26.8609 49.9952 26.5512L51.0466 25.5199L49.9952 24.4922C49.6962 24.1917 49.6776 23.7161 49.9616 23.4006L52.6649 20.3638L50.0428 18.1516C49.6996 17.8663 49.6625 17.364 49.9558 17.0264C50.2421 16.6958 50.7568 16.6587 51.0976 16.9441L53.9331 19.3383C54.1139 19.4856 54.2171 19.7072 54.2171 19.9392V20.7396C54.2171 20.9333 54.1487 21.1166 54.02 21.2604L51.6807 23.8878L52.1966 24.3936L55.4516 21.2013V19.4752L50.8102 14.9257C50.6606 14.7749 50.576 14.573 50.576 14.3619V11.9712H50.081C49.6347 11.9712 49.2731 11.6116 49.2731 11.1708V8.77886C49.2731 8.34038 49.6347 7.98194 50.081 7.98194C50.5331 7.98194 50.8948 8.34038 50.8948 8.77886V10.3739H51.3109C51.3353 10.3715 51.3596 10.3704 51.384 10.3704C51.4083 10.3704 51.4327 10.3715 51.4558 10.3739H53.0115C53.2201 10.3739 53.43 10.4562 53.583 10.607L60.0896 16.9882C60.2426 17.1355 60.326 17.3373 60.326 17.5519V23.135C60.326 23.3438 60.2426 23.5456 60.0896 23.6987L52.0772 31.5519C52.7124 31.9776 53.3372 32.4358 53.9493 32.9254L62.3755 24.4133V16.69L55.6904 10.1442C55.3716 9.83098 55.3716 9.32522 55.6869 9.01318C56.0057 8.70346 56.5169 8.70346 56.8357 9.01318L63.7573 15.798C63.9161 15.9488 63.9972 16.1506 63.9972 16.3652V20.7408H65.2121V19.1434C65.2121 18.7073 65.5738 18.3488 66.0201 18.3488C66.4721 18.3488 66.8338 18.7073 66.8338 19.1434V21.5377C66.8338 21.9785 66.4721 22.3311 66.0201 22.3311H63.9972V24.7323C63.9972 24.9434 63.9161 25.1429 63.7666 25.2903L55.1827 33.9659C55.5003 34.2489 55.8156 34.5412 56.1274 34.8405L63.3898 27.5766C63.7051 27.2611 64.2163 27.2611 64.5351 27.5708C64.8562 27.8771 64.862 28.3805 64.5502 28.6925L57.2576 35.9808C58.3276 37.1106 59.292 38.2811 60.1499 39.4515C60.8303 40.3749 61.3137 41.1196 61.5907 41.5998V39.0478L59.7569 37.2475C59.4393 36.9343 59.4393 36.4286 59.7569 36.1165L68.1298 27.9142L67.8922 27.681C67.7391 27.5302 67.6522 27.3284 67.6522 27.1173V23.1315C67.6522 22.6907 68.0139 22.3323 68.466 22.3323C68.9123 22.3323 69.2739 22.6907 69.2739 23.1315V26.7832L72.2902 29.7423C72.4432 29.8931 72.5267 30.095 72.5267 30.3061V34.2953C72.5267 34.7338 72.165 35.0922 71.7187 35.0922C71.2666 35.0922 70.9084 34.7326 70.9084 34.2953V30.6402L69.2762 29.0394L67.9849 30.3049L69.8477 32.1319C70.1572 32.4324 70.1723 32.9172 69.879 33.2328L66.4038 36.9946V42.2657H72.5301C72.9764 42.2657 73.3416 42.6206 73.3416 43.0661V49.4437C73.3416 49.8857 72.9764 50.2406 72.5301 50.2406C72.0815 50.2406 71.7198 49.8845 71.7198 49.4437V43.8607H65.5935C65.1472 43.8607 64.7855 43.5057 64.7855 43.0661V36.6826C64.7855 36.4889 64.8574 36.2963 64.9942 36.149L68.1565 32.7247L66.8373 31.4301L61.4783 36.6826L62.976 38.1546C63.1313 38.302 63.2136 38.5108 63.2136 38.7184V44.6761C63.2136 45.1204 62.8519 45.4696 62.4057 45.4696C62.1692 45.4696 61.9559 45.3721 61.8075 45.2155C61.5838 45.7445 61.2059 46.5113 60.6587 47.4358C60.4118 47.8568 60.1498 48.2768 59.8716 48.6955V48.7141L61.4841 50.2928L63.5046 48.3127V46.2549C63.5046 45.8106 63.8662 45.458 64.3183 45.458H69.2774C69.7237 45.458 70.0889 45.8106 70.0889 46.2549V51.7394H74.1553C74.6039 51.7394 74.9691 52.092 74.9691 52.5328C74.9691 52.9713 74.6039 53.3297 74.1553 53.3297H64.8319L61.7125 56.384C61.3972 56.6937 60.8883 56.6937 60.5706 56.384L57.0733 52.9597V59.0102H58.7008C58.9165 59.0102 59.1216 59.0926 59.2747 59.2434L60.3295 60.2781L65.4497 55.2565C65.6027 55.1092 65.8079 55.0268 66.0201 55.0268H72.5301C72.9764 55.0268 73.3404 55.3829 73.3404 55.8214C73.3404 56.2657 72.9753 56.6218 72.5301 56.6218H66.3597L61.4748 61.4033L63.9845 63.8648H64.396V60.6076C64.396 60.3964 64.4795 60.1911 64.636 60.0438L66.7109 58.008C66.857 57.8607 67.0668 57.7748 67.2847 57.7748H71.7141C72.1603 57.7748 72.5243 58.1333 72.5243 58.5717C72.5243 59.016 72.1592 59.3721 71.7141 59.3721H67.6186L66.0177 60.9323V63.8648H66.8373V62.9995C66.8373 62.7849 66.9242 62.5819 67.0749 62.4345L68.7036 60.8372C68.8497 60.6899 69.056 60.6076 69.2774 60.6076H70.0889C70.5386 60.6076 70.8968 60.9625 70.8968 61.401C70.8968 61.8453 70.5386 62.2014 70.0889 62.2014H69.6113L68.4567 63.3266V63.8637H69.7805L71.1217 62.4508C71.4277 62.1318 71.9424 62.1132 72.2693 62.4171C72.5997 62.7153 72.6124 63.2233 72.3064 63.5423L70.7218 65.2035C70.5722 65.3659 70.3566 65.4517 70.1329 65.4517H63.6448C63.4362 65.4517 63.2299 65.3693 63.0745 65.222L59.7719 61.9821L59.7569 61.9682L59.7418 61.9531L58.367 60.6041H56.2584C55.8121 60.6041 55.4504 60.2456 55.4504 59.8072V53.7705C55.1815 54.0072 54.9079 54.238 54.6297 54.4619V64.2627L60.0884 69.6068C60.406 69.92 60.406 70.4223 60.0884 70.7355C59.7731 71.0487 59.2584 71.0487 58.9408 70.7355L53.2514 65.1559C53.0949 65.0086 53.0115 64.8091 53.0115 64.591V55.652C52.4817 56.0058 51.9369 56.3376 51.3782 56.6438V65.8542L60.3713 74.6424L62.3489 72.7075L62.4335 72.6367L65.2098 70.5696V69.3736H62.6989C62.4868 69.3736 62.2816 69.2913 62.1286 69.1405L56.8635 63.9773C56.5482 63.6711 56.5482 63.1642 56.86 62.8521C57.1753 62.5366 57.6923 62.5366 58.0076 62.8521L63.0386 67.7821H66.0201C66.4698 67.7821 66.8373 68.1348 66.8373 68.579V70.9675C66.8373 71.2192 66.7156 71.4547 66.5092 71.6055L63.4524 73.871L60.9416 76.3336C60.6298 76.6434 60.1151 76.6433 59.8009 76.3394L49.9964 66.7486C49.8434 66.6013 49.7564 66.3959 49.7564 66.1871V57.4454C49.236 57.6762 48.7039 57.8874 48.1602 58.0764V65.3891C48.1602 72.8768 49.1583 77.3718 50.9365 79.5944C52.1745 81.143 53.678 81.578 56.532 81.513C56.8311 81.5072 57.0803 81.5003 57.6205 81.4794C58.4968 81.4457 58.877 81.433 59.3674 81.433C61.323 81.433 62.2051 80.7312 62.8983 79.1095C62.9887 78.8914 63.0792 78.6559 63.1881 78.352C63.2101 78.2847 63.4095 77.714 63.4721 77.5516C63.9277 76.3 64.3207 75.6376 65.1912 75.2084C67.2871 74.1818 69.0189 72.9302 70.2291 71.6542C71.1704 70.652 71.6665 69.7437 71.6665 69.3702C71.6665 68.3923 71.8914 67.5861 72.3435 66.7091C72.4965 66.4052 73.2581 65.1083 73.461 64.7163C73.6453 64.3451 73.7009 63.7163 73.7009 62.1956C73.7009 60.1319 73.7821 59.2979 74.2747 58.3351C74.5587 57.7713 74.83 57.4001 75.4386 56.6519C76.3277 55.5662 76.5514 55.1254 76.5514 54.2241C76.5514 53.5826 76.439 53.3135 76.0738 52.868C76.0367 52.8193 75.8744 52.6314 75.8304 52.5711C75.2253 51.8345 74.9227 51.1884 74.9227 50.2348V31.8999C74.9227 31.1146 74.3582 30.3421 73.0286 29.2621C72.9069 29.1554 72.7701 29.044 72.5916 28.9095C72.6008 28.9153 72.2485 28.6357 72.1522 28.5591C71.7778 28.261 71.5216 28.0476 71.2817 27.8295C70.4865 27.0906 70.0436 26.4131 70.0436 25.5141V21.5284C70.0436 20.5169 69.8466 19.9833 69.6066 19.7501C69.4351 19.6979 69.2171 19.633 69.0166 19.5239C67.8655 18.8824 66.9706 17.6343 66.8118 16.3467L66.7898 14.3561L66.7956 14.3596ZM69.282 39.0734C69.282 38.1941 70.0019 37.4818 70.9072 37.4818C71.8056 37.4818 72.5324 38.1906 72.5324 39.0734C72.5324 39.9561 71.8091 40.6672 70.9072 40.6672C70.0089 40.6672 69.282 39.9619 69.282 39.0734ZM61.3879 11.7311L63.8268 14.123C64.1445 14.4362 64.6591 14.4362 64.9745 14.123C65.2921 13.8132 65.2921 13.3075 64.9675 12.9943L62.5308 10.6024C62.2155 10.2892 61.6985 10.2927 61.3832 10.6082C61.0679 10.9179 61.0679 11.4237 61.3867 11.7311H61.3879ZM70.6661 67.5443C70.9838 67.2346 70.9838 66.7289 70.6661 66.4157C70.3474 66.1059 69.8361 66.1036 69.5208 66.4157L67.8933 68.0107C67.7438 68.1615 67.6534 68.3633 67.6534 68.5744V70.1659C67.6534 70.6102 68.0185 70.9663 68.4671 70.9663C68.9134 70.9663 69.2786 70.6114 69.2786 70.1659V68.9027L70.6673 67.5443H70.6661ZM58.9246 50.0295L60.9196 51.9795C61.2314 52.2927 61.7426 52.2927 62.0614 51.9795L64.8968 49.2071C65.0428 49.0598 65.1309 48.8545 65.1309 48.6433V47.046H68.4648V51.7359H64.498C64.2859 51.7359 64.0807 51.8124 63.9277 51.9656L61.1491 54.6916L57.7978 51.4122C58.1954 50.9575 58.571 50.4958 58.9246 50.0295ZM49.9987 70.7332C49.6799 70.4269 49.6799 69.92 49.9987 69.6103C50.3163 69.2971 50.8287 69.2913 51.1463 69.6045L59.2805 77.5795C59.43 77.7291 59.5181 77.9321 59.5181 78.1432V78.9425C59.5181 79.3786 59.1529 79.7371 58.7078 79.7371H55.4539C55.2418 79.7371 55.0354 79.6547 54.8766 79.5074L52.6742 77.3463H52.2C51.7503 77.3463 51.3851 76.9902 51.3851 76.5517C51.3851 76.1074 51.7503 75.7513 52.2 75.7513H53.0138C53.2259 75.7513 53.4346 75.8337 53.5818 75.988L55.7866 78.1444H57.5556L49.9976 70.7332H49.9987Z" fill="#03B7AC"></path> </svg> 